<svg xmlns:xlink="http://www.w3.org/1999/xlink" width="700" xmlns="http://www.w3.org/2000/svg" height="1081"
  viewBox="0 0 700 1081" fill="white" version="1.1">
  <g>
    <g>
      <path
        d="M289,167L412,167L412,366L289,366L289,167ZM418,89C418,89,434.512,121.382,434.512,121.382C684.278,235.221,604.589,417.618,604.589,417.618C604.589,417.618,604.589,417.618,655.777,450C754.757,346.037,692.658,121.382,418,89ZM275,82C-115.378,171.449,15.782,447,43.229,447C43.229,447,92.52,419.424,92.52,419.424C25.124,210.258,261.751,119.682,261.751,119.682C261.751,119.682,275,82,275,82ZM269.633,207.996C212.169,233.455,179.837,267.955,179.837,267.955L179.837,308.727C179.837,308.727,228.633,288.341,269.633,283.544C269.633,283.544,269.633,207.996,269.633,207.996ZM423.102,202C423.102,202,423.102,288.341,423.102,288.341C506.1,299.134,566.776,332.711,566.776,332.711C566.776,332.711,573.416,267.955,423.102,202ZM423.102,299.134C423.102,299.134,423.102,347.101,423.102,347.101C519.73,365.089,588,413.056,588,413.056L588,359.093C588,359.093,555.803,324.132,423.102,299.134ZM108,365.089L108,417.853C108,417.853,194.166,359.093,269.633,347.101C269.633,347.101,269.633,299.134,269.633,299.134C166.014,312.802,108,365.089,108,365.089ZM348,916.712C348,916.712,299.02,978.69,299.02,1005.452C299.02,1037.829,330.638,1025.883,341.469,1081C354.71,1037.829,388.816,1030.634,388.816,1005.452C388.816,973.621,348,916.712,348,916.712ZM348,809.985C299.02,867.906,220.653,899.051,220.653,940.696C220.653,965.461,248.304,981.591,259.837,1030.634C250.21,949.09,341.469,940.696,348,891.529C363.477,940.696,438.542,991.049,413.306,1037.829C460.723,988.888,475.031,965.24,468.816,940.696C458.559,900.184,383.423,849.558,348,809.985ZM179.837,932.301C160.925,906.85,151.879,858.981,166.984,845.249C181.342,832.197,220.653,805.434,250.093,779.093C280.402,751.973,291.016,678.075,348,678.075C401.075,678.075,428.377,737.322,446.936,779.093C460.661,809.985,518.722,820.139,534.122,860.351C543.941,885.987,509.562,916.712,491.673,949.09C526.264,852.316,388.816,904.069,348,757.221C306.402,897.699,166.984,865.696,179.837,932.301ZM350.558,633C140.113,633,234.362,736.896,121.179,759.577C105.968,762.625,149.703,802.732,160.501,838.798C244.691,773.572,241.29,668.837,350.558,668.837C428.461,668.837,447.548,714.839,475.082,754.546C498.308,788.042,533.591,785.198,552.083,846C562.874,801.371,617.053,770.852,597.959,765.579C468.243,729.753,552.083,633,350.558,633ZM602.014,525.532C611.144,533.428,633.13,541.109,633.13,548.298C633.13,606.112,582.362,700.467,663.417,700.467C639.28,737.685,593.46,708.11,588.028,681.296C581.185,647.521,602.014,586.736,602.014,525.532ZM82.87,515.947C82.87,515.947,63.907,529.468,64.855,541.109C71.363,621.038,92.696,627.721,82.87,681.296C80.634,693.483,64.855,700.467,40.29,700.467C40.29,731.739,110.71,714.063,110.71,688.486C110.71,631.97,82.87,515.947,82.87,515.947ZM110.71,434.55C110.71,429.677,93.465,424.909,92.696,429.677C82.87,490.599,19,555.487,19,555.487C19,555.487,107.492,511.181,110.71,434.55ZM582.362,425C595.889,429.677,618.391,437.247,618.391,439.563C618.391,518.644,697,562.676,697,562.676C697,562.676,576.269,541.109,582.362,425ZM131.362,590C123.133,593.929,122.47,599.943,123.133,605.849C131.362,679.096,123.133,741.209,74,741.209C167.916,761.931,177.18,698.159,177.18,689.7C177.18,679.531,161.624,646.316,131.362,590ZM568.607,614.234C568.607,614.234,530.938,675.281,530.938,706.47C530.938,735.295,603,746,603,746C603,746,552.222,718.211,578.433,640.588C580.766,633.679,568.607,614.234,568.607,614.234ZM331.25,624.587L331.25,446.94C331.25,446.94,301.782,478.092,301.782,497.354C295.234,513.032,279.524,516.715,280.5,523.761C287.817,576.574,285.536,584.796,280.5,601.781C272.315,629.388,247.758,640.191,247.758,640.191C247.758,640.191,266.174,587.082,223.202,564.571C187.485,545.861,185.691,544.25,210.105,523.761C235.85,502.155,234.309,497.354,223.202,484.15C210.083,468.556,179,454.142,179,454.142C179,454.142,256.886,454.142,295.234,484.15C280.5,446.94,272.315,408.53,272.315,408.53C272.315,408.53,323.205,420.813,368.903,377.322C368.903,377.322,411.468,377.322,411.468,377.322C411.468,377.322,421.869,359.206,425.401,360.027C511.364,380.012,538.866,397.312,545.71,408.53C559.399,430.97,554.068,446.94,554.068,446.94C554.068,446.94,491.589,468.546,411.468,468.546C380.363,468.546,359.081,446.94,359.081,446.94C359.081,446.94,379.604,523.761,436.024,523.761C485.894,523.761,485.77,506.964,506.419,484.15C481.859,484.15,476.227,502.155,458.944,502.155C425.401,502.155,418.016,484.15,418.016,484.15C418.016,484.15,453.531,472.954,527.702,461.344C550.666,457.75,560.56,451.517,563.718,461.344C569.762,480.156,571.77,491.832,585,523.761C578.506,545.929,551.501,563.784,545.71,576.574C527.702,616.347,536.754,640.191,506.419,675C487.953,660.601,482.634,640.191,418.016,629.388C411.468,611.65,396.734,601.781,396.734,601.781C396.734,601.781,391.738,619.821,380.363,624.587C368.903,629.388,331.25,624.587,331.25,624.587ZM409.125,150C409.125,150,286.146,150,286.146,150C286.146,150,283.568,135.064,286.146,127.276C303.68,74.306,309.488,59.131,330.418,4.088C332.762,-2.075,373.563,-0.601,374.691,4.088C390.672,70.519,390.15,66.806,409.125,122.492C413.344,134.873,409.125,150,409.125,150Z" />
    </g>
  </g>
</svg>